Coordinates
version=1
nRows=4
nColumns=40
inDegrees=yes

Units are S.I. units (second, meters, Newtons, ...)
If the header above contains a line with 'inDegrees', this indicates whether rotational values are in degrees (yes) or radians (no).

endheader
time	pelvis_tilt	pelvis_list	pelvis_rotation	pelvis_tx	pelvis_ty	pelvis_tz	hip_flexion_r	hip_adduction_r	hip_rotation_r	knee_angle_r	knee_angle_r_beta	ankle_angle_r	subtalar_angle_r	mtp_angle_r	hip_flexion_l	hip_adduction_l	hip_rotation_l	knee_angle_l	knee_angle_l_beta	ankle_angle_l	subtalar_angle_l	mtp_angle_l	lumbar_extension	lumbar_bending	lumbar_rotation	arm_flex_r	arm_add_r	arm_rot_r	elbow_flex_r	pro_sup_r	wrist_flex_r	wrist_dev_r	arm_flex_l	arm_add_l	arm_rot_l	elbow_flex_l	pro_sup_l	wrist_flex_l	wrist_dev_l
     16.76999999999999957367	     26.80974218097640360270	    -10.27837369432022107674	    178.80886258372561314900	      0.35444353540892359344	      0.63780500753328939201	     -0.60296140025569877618	     97.23085902040062933338	     -7.10009910457196280476	     10.99977099682322645435	     94.78266239453832042727	      1.65426953259090647741	     27.22259321932797249133	      0.00000000000000000000	      0.00000000000000000000	     90.82696260512310004742	     -5.57381469582216215741	     -9.40398146874203355594	     93.33168628361339358435	      1.62894522208748382397	     29.54457463553911011900	      0.00000000000000000000	      0.00000000000000000000	    -40.51077091759388792980	     -8.62581161321778822071	     -6.49063647978027713492	     53.68966205466657726220	    -13.39420681037879035102	     42.20309408603118583869	     10.60467065068119296711	     10.77828851930043896346	      0.00000000000000000000	      0.00000000000000000000	     61.21494553489737455720	    -18.35428274714589846894	     40.45745927696798815987	     17.67817385568450561095	     85.99612020014623681163	      0.00000000000000000000	      0.00000000000000000000
     16.77499999999999857891	     26.81366093218844781632	    -10.27735969535410376352	    178.69765614699980460500	      0.35449408526261311225	      0.63814272489366485885	     -0.60305079154849594580	     97.18455006709312726798	     -6.97824702566776355894	     11.00453325830906692318	     94.69685328961449499729	      1.65277188118179640952	     27.17668218567500559857	      0.00000000000000000000	      0.00000000000000000000	     90.79128807642894116725	     -5.69566064104530944689	     -9.41849826087258890084	     93.30829652239255267432	      1.62853699374292504309	     29.55666407557587049837	      0.00000000000000000000	      0.00000000000000000000	    -40.49671715915003744612	     -8.67834447561887323275	     -6.41843018825061228938	     53.67407039138246460652	    -13.38951609708284884448	     42.20645292464732989401	     10.60348260129073239000	     10.77693734034915884479	      0.00000000000000000000	      0.00000000000000000000	     61.21649060021040611446	    -18.36890030941174245527	     40.45211029611364494940	     17.67573651927335731671	     85.99501348831826419428	      0.00000000000000000000	      0.00000000000000000000
     16.78000000000000113687	     26.85577692336602595446	    -10.26242723627472486214	    178.63484413836235376039	      0.35459016667000409218	      0.63868496217211256916	     -0.60306488617732323387	     97.14286394559270831905	     -6.90706092600208343413	     10.98854732724613469941	     94.56005062106393665999	      1.65038422419007457798	     27.13204627876544705600	      0.00000000000000000000	      0.00000000000000000000	     90.76378598329544900025	     -5.80083529934785513404	     -9.46996551980774903257	     93.21245991939092334633	      1.62686432947661985260	     29.55366414466114477477	      0.00000000000000000000	      0.00000000000000000000	    -40.47575072829159381627	     -8.69039125549048030450	     -6.37279597438723488523	     53.67670982828445147561	    -13.38616502115335649137	     42.20529871744211192208	     10.61622210128849275179	     10.77639346417887189489	      0.00000000000000000000	      0.00000000000000000000	     61.23248063722311229640	    -18.36915686393929902920	     40.45607029568234480621	     17.67661861416011603865	     85.99449505714527219880	      0.00000000000000000000	      0.00000000000000000000
     16.78500000000000014211	     26.94040619916134460254	    -10.27554747855600325579	    178.74266781442210572095	      0.35490710648204060185	      0.63968603576294591484	     -0.60270354344314225337	     97.12454296833527678245	     -7.06755403005135907080	     10.96890984199044005720	     94.34693306913712262940	      1.64666462121516166128	     27.02554910184553449426	      0.00000000000000000000	      0.00000000000000000000	     90.72807772429879946685	     -5.61755560044648394324	     -9.45193503387587696807	     92.92094707619813220845	      1.62177647055105578211	     29.37489455744855959551	      0.00000000000000000000	      0.00000000000000000000	    -40.50621841348142027073	     -8.60459956120925006928	     -6.48639263533642029813	     53.78672842977352530625	    -13.40888942026003505248	     42.17336947602357355436	     10.67944900936875463060	     10.76418212903796955970	      0.00000000000000000000	      0.00000000000000000000	     61.34025170120084879954	    -18.34345750382357920216	     40.52155602699679803891	     17.59605894859246788542	     85.99448591948180364852	      0.00000000000000000000	      0.00000000000000000000
